<?xml version="1.0" encoding="UTF-8"?>
<!DOCTYPE svg PUBLIC "-//W3C//DTD SVG 1.1//EN" "http://www.w3.org/Graphics/SVG/1.1/DTD/svg11.dtd">
<!-- Creator: CorelDRAW X7 -->
<svg xmlns="http://www.w3.org/2000/svg" xml:space="preserve" width="200px" height="283px" version="1.1" style="shape-rendering:geometricPrecision; text-rendering:geometricPrecision; image-rendering:optimizeQuality; fill-rule:evenodd; clip-rule:evenodd"
viewBox="0 0 200 283"
 xmlns:xlink="http://www.w3.org/1999/xlink">
 <defs>
   <clipPath id="id0" style="clip-rule:nonzero">
    <path d="M90 145l0 -4 4 -4 3 0 -4 5 -2 2 -1 1zm-3 2l0 -10 4 0 0 10 -4 0zm7 0l-3 -4 2 -2 5 6 -4 0zm9 0c-1,0 -2,0 -2,0 -1,0 -2,-1 -2,-1 -1,0 -1,-1 -1,-2 -1,0 -1,-1 -1,-2 0,-1 0,-1 1,-2 0,0 0,-1 1,-2 0,0 1,0 2,-1 0,0 1,0 2,0 1,0 2,0 3,1 0,0 1,0 2,1l-3 2c0,-1 0,-1 -1,-1 0,0 0,0 -1,0 0,0 -1,0 -1,0 0,0 0,0 -1,0 0,1 0,1 0,1 0,1 0,1 0,1 0,1 0,1 0,1 0,1 0,1 0,1 1,0 1,0 1,1 0,0 1,0 1,0 0,0 1,0 1,0 1,-1 1,-1 1,-1l2 2c0,1 -1,1 -2,1 -1,0 -1,0 -2,0zm1 -1l0 -4 3 0 0 4 -3 0zm5 1l0 -10 5 0c1,0 2,1 3,1 1,0 1,1 1,2 0,0 0,1 0,1 -1,1 -1,1 -2,1 0,0 -1,0 -2,0l1 0c0,0 1,0 2,0 0,0 1,1 1,1 0,0 0,1 0,1 0,1 0,2 -1,2 0,1 -1,1 -3,1l-5 0zm3 -2l2 0c0,0 1,0 1,0 0,0 0,-1 0,-1 0,0 0,0 0,0 0,-1 -1,-1 -1,-1l-2 0 0 -2 2 0c0,0 0,0 0,0 1,0 1,0 1,-1 0,0 0,0 -1,0 0,0 0,0 0,0l-2 0 0 5z"/>
   </clipPath>
 </defs>
 <g id="Слой_x0020_1">
  <metadata id="CorelCorpID_0Corel-Layer"/>
  <g style="clip-path:url(#id0)">
   <image x="87" y="137" width="31.2765" height="10.4112" xlink:href="logo100_Images\logo100_ImgID1.png"/>
  </g>
 </g>
</svg>
