<?xml version="1.0" encoding="UTF-8"?>
<!DOCTYPE svg PUBLIC "-//W3C//DTD SVG 1.1//EN" "http://www.w3.org/Graphics/SVG/1.1/DTD/svg11.dtd">
<!-- Creator: CorelDRAW X7 -->
<svg xmlns="http://www.w3.org/2000/svg" xml:space="preserve" width="200px" height="200px" version="1.1" style="shape-rendering:geometricPrecision; text-rendering:geometricPrecision; image-rendering:optimizeQuality; fill-rule:evenodd; clip-rule:evenodd"
viewBox="0 0 200 200"
 xmlns:xlink="http://www.w3.org/1999/xlink">
 <defs>
   <clipPath id="id0" style="clip-rule:nonzero">
    <path d="M20 117l-1 -23 23 -27 24 0 -27 30 -12 12 -7 8zm-19 14l0 -64 21 0 0 64 -21 0zm41 0l-18 -25 13 -14 30 39 -25 0zm58 1c-5,0 -9,-1 -14,-2 -4,-2 -8,-4 -11,-7 -3,-3 -6,-6 -7,-10 -2,-4 -3,-9 -3,-14 0,-5 1,-9 3,-13 1,-4 4,-8 7,-11 3,-3 7,-5 11,-7 5,-1 10,-2 15,-2 6,0 12,1 17,3 5,2 9,5 12,9l-14 12c-2,-2 -4,-4 -6,-5 -3,-1 -5,-2 -8,-2 -2,0 -4,1 -6,1 -2,1 -4,2 -5,4 -2,1 -3,3 -3,5 -1,1 -1,4 -1,6 0,3 0,5 1,7 0,2 1,3 3,5 1,1 3,2 5,3 1,1 3,1 6,1 2,0 5,0 7,-1 2,-1 5,-2 7,-4l12 14c-4,3 -8,5 -13,6 -5,2 -10,2 -15,2zm10 -10l0 -25 18 0 0 27 -18 -2zm27 9l0 -64 34 0c9,0 15,2 19,5 5,3 7,7 7,12 0,3 -1,6 -3,9 -2,2 -4,4 -8,6 -3,1 -7,2 -12,2l2 -5c5,0 9,1 12,2 4,1 7,3 9,6 2,3 3,6 3,9 0,6 -3,10 -7,13 -5,3 -11,5 -20,5l-36 0zm21 -15l13 0c2,0 4,-1 5,-1 2,-1 2,-2 2,-4 0,-2 0,-3 -2,-4 -1,-1 -3,-1 -5,-1l-14 0 0 -14 11 0c3,0 4,-1 5,-1 2,-1 2,-2 2,-4 0,-1 0,-3 -2,-3 -1,-1 -2,-2 -5,-2l-10 0 0 34z"/>
   </clipPath>
 </defs>
 <g id="Слой_x0020_1">
  <metadata id="CorelCorpID_0Corel-Layer"/>
  <g style="clip-path:url(#id0)">
   <image x="1" y="66" width="199.011" height="66.2466" xlink:href="logo200_Images\logo200_ImgID1.png"/>
  </g>
 </g>
</svg>
